<svg width="644" height="139" viewBox="0 0 644 139" fill="none" xmlns="http://www.w3.org/2000/svg">
<path d="M0 139L45.4803 19.3149H288.425L247.5 139H0Z" fill="#021943" fill-opacity="0.8"/>
<path d="M47.8571 99.7997C47.5652 99.7997 47.5652 99.5079 47.8571 99.7997L46.398 98.9243L46.1062 98.6325L11.6725 74.1203C11.6725 74.1203 11.3806 74.1203 11.3806 73.8285L10.797 73.2449L10.5052 72.9531H9.92158L0 65.9496L19.5514 68.8677C20.4268 68.8677 20.7186 69.1595 21.594 69.4513C21.8858 69.4513 22.4695 69.7431 22.4695 69.7431C23.3449 70.0349 23.6367 70.3268 24.2203 70.6186C24.804 70.9104 25.0958 71.2022 25.6794 71.494C25.9712 71.7858 26.5548 72.0776 26.5548 72.3694C26.8466 72.6612 27.1385 72.6612 27.4303 72.9531C28.0139 73.2449 28.3057 73.5367 28.3057 73.8285C29.1811 74.7039 29.7648 75.5794 30.6402 76.163L46.1062 98.0488L46.398 98.3406L47.8571 99.7997Z" fill="#2AD2FF"/>
<path d="M47.8616 133.65L46.4026 131.315L46.1108 131.024L0.296387 65.9496L10.218 72.9531L11.9688 74.1203L46.4026 98.6325H46.6944L47.8616 99.5079C47.8616 99.5079 48.1534 99.5079 48.1534 99.7997L49.6125 98.6325L96.0105 65.9496L49.3207 131.315L49.0289 131.607L47.8616 133.65Z" fill="url(#paint0_linear)"/>
<path d="M47.8055 88.712L46.3582 86.3702L46.0679 86.0769L34.7668 70.2619L46.1356 72.6537L46.4274 72.6552L47.8849 72.9544L49.3454 72.6699L60.4474 70.0996L49.2763 86.3849L49.2748 86.6767L47.8055 88.712Z" fill="#2AD2FF"/>
<path d="M96.2931 65.6576L81.7025 67.7003L76.1581 68.5757C71.7809 69.1593 67.6956 71.4938 65.0693 75.2874L49.6033 97.465L49.3115 97.7568L47.8524 99.7995L49.6033 98.0486L49.8951 97.7568L47.8524 99.7995L87.2469 71.7856L96.2931 65.6576Z" fill="#2AD2FF"/>
<path d="M55.157 19.5514C55.157 32.3911 32.9793 39.1027 32.9793 52.8178C32.6875 56.0278 33.5629 59.2377 35.022 62.1558C35.022 62.1558 26.5594 53.9851 26.5594 45.2308C26.5594 36.4764 34.7302 23.3449 34.7302 23.3449C34.7302 29.1811 37.0647 30.932 39.3991 31.2238H39.691C42.3173 31.2238 43.7763 29.1811 43.7763 26.263C43.7763 23.3449 40.5664 20.4268 40.5664 14.5906C40.5664 9.04615 47.5699 0 47.5699 0C52.5307 5.83623 55.157 12.5479 55.157 19.5514Z" fill="#2AF4FF"/>
<path d="M49.0287 66.2423C42.0252 66.2423 36.7726 60.6979 36.7726 53.9862V53.6944C36.7726 38.812 57.4912 37.353 57.4912 17.218C58.0748 18.0935 63.6192 25.6805 63.6192 33.8513C63.6192 44.0647 53.9895 46.691 53.9895 51.6518C53.9895 53.6944 54.8649 55.1535 57.783 55.1535C58.0748 55.1535 58.3666 55.1535 58.6584 54.8617C64.2028 52.5272 67.9964 47.2746 68.2882 41.1465C68.2882 41.4384 71.2063 66.2423 49.0287 66.2423Z" fill="#2AF4FF"/>
<path d="M58.0704 55.1535C58.3622 55.1535 58.654 55.1535 58.9458 54.8617C56.0277 55.7371 45.2307 58.3634 45.2307 50.7763C45.2307 41.4383 61.2803 39.3957 61.2803 31.5168C61.2803 26.556 60.1131 21.5952 57.4868 17.218C58.0704 18.0935 63.6148 25.6805 63.6148 33.8513C63.6148 44.0647 53.9851 46.691 53.9851 51.6518C54.2769 53.6944 55.4441 55.1535 58.0704 55.1535Z" fill="#2AD2FF"/>
<path d="M49.3159 24.804C49.3159 32.0992 39.9779 31.5156 39.3943 31.2238H40.2697C42.896 31.2238 44.3551 29.1811 44.3551 26.263C44.3551 23.3449 41.1452 20.4268 41.1452 14.5906C41.1452 9.04615 48.1486 0 48.1486 0C45.8141 3.79355 44.6469 7.8789 44.3551 11.9643C44.3551 18.6759 49.3159 19.2595 49.3159 24.804Z" fill="#2AD2FF"/>
<path d="M123.26 72C128.594 72 131.408 68.64 131.408 64.44C131.408 60.912 129.014 58.014 126.032 57.552C128.678 57.006 130.862 54.654 130.862 51.126C130.862 47.388 128.132 43.986 122.798 43.986H108.056V72H123.26ZM121.496 55.2H114.02V49.11H121.496C123.512 49.11 124.772 50.412 124.772 52.176C124.772 53.94 123.512 55.2 121.496 55.2ZM121.706 66.834H114.02V60.324H121.706C124.058 60.324 125.318 61.836 125.318 63.6C125.318 65.616 123.974 66.834 121.706 66.834ZM155.73 72V66.75H141.87V60.408H155.436V55.158H141.87V49.236H155.73V43.986H135.906V72H155.73ZM170.346 72.504C177.906 72.504 181.56 68.64 181.56 63.516C181.56 53.058 165.474 56.04 165.474 51.588C165.474 49.908 166.902 48.774 169.464 48.774C172.32 48.774 175.344 49.74 177.612 51.84L180.93 47.472C178.158 44.91 174.462 43.566 170.01 43.566C163.416 43.566 159.384 47.43 159.384 52.092C159.384 62.634 175.512 59.232 175.512 64.188C175.512 65.784 173.916 67.296 170.64 67.296C166.776 67.296 163.71 65.574 161.736 63.516L158.502 68.052C161.106 70.698 164.97 72.504 170.346 72.504ZM197.517 72V49.236H205.665V43.986H183.321V49.236H191.511V72H197.517Z" fill="white"/>
<path d="M114.304 99C119.738 99 123.508 95.568 123.508 90.342C123.508 85.116 119.738 81.658 114.304 81.658H107.466V99H114.304ZM114.304 95.75H111.158V84.908H114.304C117.866 84.908 119.738 87.274 119.738 90.342C119.738 93.28 117.736 95.75 114.304 95.75ZM138.66 99V95.75H130.08V91.824H138.478V88.574H130.08V84.908H138.66V81.658H126.388V99H138.66ZM147.969 99.312C152.649 99.312 154.911 96.92 154.911 93.748C154.911 87.274 144.953 89.12 144.953 86.364C144.953 85.324 145.837 84.622 147.423 84.622C149.191 84.622 151.063 85.22 152.467 86.52L154.521 83.816C152.805 82.23 150.517 81.398 147.761 81.398C143.679 81.398 141.183 83.79 141.183 86.676C141.183 93.202 151.167 91.096 151.167 94.164C151.167 95.152 150.179 96.088 148.151 96.088C145.759 96.088 143.861 95.022 142.639 93.748L140.637 96.556C142.249 98.194 144.641 99.312 147.969 99.312ZM161.349 99V81.658H157.657V99H161.349ZM173.449 99.338C176.595 99.338 179.065 98.038 180.833 96.062V89.406H172.565V92.63H177.141V94.71C176.439 95.36 174.983 96.036 173.449 96.036C170.303 96.036 168.015 93.618 168.015 90.342C168.015 87.066 170.303 84.648 173.449 84.648C175.295 84.648 176.777 85.688 177.557 86.91L180.625 85.246C179.325 83.192 177.063 81.372 173.449 81.372C168.379 81.372 164.219 84.856 164.219 90.342C164.219 95.802 168.379 99.338 173.449 99.338ZM199.546 99V81.658H195.854V92.552L187.82 81.658H184.024V99H187.716V87.69L195.984 99H199.546Z" fill="#2AF4FF"/>
<path d="M130.073 113.434L126.179 110.779H130.958L132.551 106L133.967 110.779H138.746L134.852 113.434L136.268 118.037L132.374 115.204L128.303 118.037L130.073 113.434Z" fill="#2AF4FF"/>
<path d="M170.894 113.434L167 110.779H171.779L173.372 106L174.788 110.779H179.568L175.673 113.434L177.089 118.037L173.195 115.204L169.124 118.037L170.894 113.434Z" fill="#2AF4FF"/>
<path d="M150.429 113.434L146.535 110.779H151.314L152.907 106L154.323 110.779H159.102L155.208 113.434L156.624 118.037L152.73 115.204L148.659 118.037L150.429 113.434Z" fill="#2AF4FF"/>
<path d="M191.25 113.434L187.356 110.779H192.135L193.728 106L195.144 110.779H199.924L196.029 113.434L197.445 118.037L193.551 115.204L189.48 118.037L191.25 113.434Z" fill="#2AF4FF"/>
<path d="M109.894 113.434L106 110.779H110.779L112.372 106L113.788 110.779H118.568L114.673 113.434L116.089 118.037L112.195 115.204L108.301 118.037L109.894 113.434Z" fill="#2AF4FF"/>
<path d="M297.077 109L271.377 42.3H253.577L227.777 109H243.977L248.177 97.7H276.777L280.877 109H297.077ZM272.877 85.2H252.077L262.477 56.5L272.877 85.2ZM364.942 109L383.942 42.3H367.942L356.342 90.5L343.742 42.3H332.642L319.942 90.5L308.242 42.3H292.342L311.442 109H326.542L338.142 63.2L349.842 109H364.942ZM448.445 109L422.745 42.3H404.945L379.145 109H395.345L399.545 97.7H428.145L432.245 109H448.445ZM424.245 85.2H403.445L413.845 56.5L424.245 85.2ZM508.604 109L493.604 83.6C500.804 81.9 508.204 75.6 508.204 63.8C508.204 51.4 499.704 42.3 485.804 42.3H454.604V109H468.804V85.3H479.204L492.304 109H508.604ZM483.704 72.8H468.804V54.8H483.704C489.404 54.8 493.704 58.2 493.704 63.8C493.704 69.4 489.404 72.8 483.704 72.8ZM545.162 109C566.062 109 580.562 95.8 580.562 75.7C580.562 55.6 566.062 42.3 545.162 42.3H518.862V109H545.162ZM545.162 96.5H533.062V54.8H545.162C558.862 54.8 566.062 63.9 566.062 75.7C566.062 87 558.362 96.5 545.162 96.5ZM614.339 110.2C632.339 110.2 641.039 101 641.039 88.8C641.039 63.9 602.739 71 602.739 60.4C602.739 56.4 606.139 53.7 612.239 53.7C619.039 53.7 626.239 56 631.639 61L639.539 50.6C632.939 44.5 624.139 41.3 613.539 41.3C597.839 41.3 588.239 50.5 588.239 61.6C588.239 86.7 626.639 78.6 626.639 90.4C626.639 94.2 622.839 97.8 615.039 97.8C605.839 97.8 598.539 93.7 593.839 88.8L586.139 99.6C592.339 105.9 601.539 110.2 614.339 110.2Z" fill="white"/>
<defs>
<linearGradient id="paint0_linear" x1="48.1534" y1="133.849" x2="48.1534" y2="98.0322" gradientUnits="userSpaceOnUse">
<stop offset="0.7303" stop-color="#2AF4FF"/>
<stop offset="0.8837" stop-color="#2AF4FF"/>
</linearGradient>
</defs>
</svg>
